PathFileType	4	(X/Y/Z)	C:/Users/opensim2020/Desktop/walking_exp_matlab/subject02_walking10_straight_04.trc	
DataRate	CameraRate	NumFrames	NumMarkers	Units	OrigDataRate	OrigDataStartFrame	OrigNumFrames	
100.00	100.00	5	43	mm	100.00	3279	260	
Frame#	Time	LFHD			RFHD			LBHD			RBHD			C7			T10			CLAV			STRN			RBAK			LSHO			LUPA			LELB			LFRM			LWRA			LWRB			LFIN			RSHO			RUPA			RELB			RFRM			RWRA			RWRB			RFIN			LASI			RASI			LPSI			RPSI			LTHI			LKNE			LTIB			LANK			LHEE			LTOE			RTHI			RKNE			RTIB			RANK			RHEE			RTOE			*39			*40			*41			*42			
		X1	Y1	Z1	X2	Y2	Z2	X3	Y3	Z3	X4	Y4	Z4	X5	Y5	Z5	X6	Y6	Z6	X7	Y7	Z7	X8	Y8	Z8	X9	Y9	Z9	X10	Y10	Z10	X11	Y11	Z11	X12	Y12	Z12	X13	Y13	Z13	X14	Y14	Z14	X15	Y15	Z15	X16	Y16	Z16	X17	Y17	Z17	X18	Y18	Z18	X19	Y19	Z19	X20	Y20	Z20	X21	Y21	Z21	X22	Y22	Z22	X23	Y23	Z23	X24	Y24	Z24	X25	Y25	Z25	X26	Y26	Z26	X27	Y27	Z27	X28	Y28	Z28	X29	Y29	Z29	X30	Y30	Z30	X31	Y31	Z31	X32	Y32	Z32	X33	Y33	Z33	X34	Y34	Z34	X35	Y35	Z35	X36	Y36	Z36	X37	Y37	Z37	X38	Y38	Z38	X39	Y39	Z39	X40	Y40	Z40	X41	Y41	Z41	X42	Y42	Z42	X43	Y43	Z43	

228	2.270	-1026.43384	-1041.73389	1719.84094	-1168.85303	-1054.41162	1709.58081	-1035.90845	-912.48376	1643.46411	-1178.54822	-913.70886	1631.19446	-1122.83508	-869.11346	1504.31128	-1128.70752	-824.57281	1226.28027	-1095.83276	-1007.46277	1437.79663	-1108.52502	-1066.05945	1268.92126	-1195.10364	-823.54053	1328.89185	-935.69196	-913.73938	1470.74756	-860.02942	-866.99371	1275.99695	-853.68616	-838.30542	1142.07446	-826.45575	-800.44244	1021.09991	-820.06537	-817.23755	881.36993	-809.62512	-765.63538	903.22095	-794.43304	-760.00214	837.86041	-1299.57471	-971.73108	1476.52588	-1383.52368	-992.32233	1280.38843	-1391.51257	-1044.46350	1140.62878	-1390.04724	-1113.25500	1039.71533	-1343.49316	-1190.68762	937.67902	-1387.97876	-1159.85645	918.08148	-1371.79419	-1213.81226	872.63544	-983.13916	-1080.97681	981.99646	-1240.98315	-1070.81494	952.73682	-1054.17932	-863.59485	1012.11664	-1168.58386	-855.63239	1005.45227	-914.75385	-1066.13989	677.56763	-946.06000	-1084.64600	475.13626	-947.81171	-1065.88123	280.61563	-982.44415	-1106.85974	63.61634	-1041.48792	-1082.49939	35.76465	-947.90253	-1259.89417	31.15024	-1304.88867	-921.97662	663.88519	-1283.07861	-869.63727	461.87039	-1284.55640	-741.55914	321.37830	-1252.22754	-637.11438	156.00763	-1193.36890	-588.79834	123.20951	-1261.27966	-747.74963	32.58984	-1121.81799	-947.80231	1788.94421									 
229	2.280	-1023.72845	-1048.54590	1720.66724	-1166.35278	-1061.25757	1710.28125	-1033.35132	-919.78503	1643.54492	-1175.94006	-920.95697	1631.40845	-1120.18225	-876.79950	1504.79578	-1125.96436	-833.05994	1226.26807	-1093.42493	-1015.29419	1438.46375	-1105.70813	-1074.62195	1269.89075	-1192.28931	-831.39325	1328.78577	-932.84021	-922.72089	1471.51355	-856.76306	-877.76465	1276.20569	-850.51233	-849.81024	1142.16968	-823.03125	-813.35345	1021.00726	-817.07196	-830.88818	881.13739	-805.91718	-779.45099	902.71576	-791.06866	-773.54401	837.39587	-1297.18359	-978.96271	1477.04102	-1380.36377	-997.92645	1280.39111	-1388.46741	-1050.49255	1140.36755	-1385.58386	-1120.63330	1040.66443	-1341.44543	-1194.95361	936.55511	-1385.50635	-1163.00378	916.62891	-1370.12830	-1217.19299	871.29712	-979.19977	-1089.93701	983.86481	-1236.57886	-1080.06616	953.10687	-1050.65283	-872.60144	1013.63715	-1165.58838	-865.27032	1005.98700	-912.79333	-1078.60413	678.32562	-944.37909	-1093.13843	475.52438	-945.73132	-1071.74988	281.28876	-982.58899	-1108.10571	63.63291	-1041.61755	-1082.89148	35.94311	-948.38477	-1261.26294	30.37944	-1302.65576	-932.69330	664.09967	-1284.69421	-883.46887	462.00226	-1285.26257	-752.23517	324.38693	-1252.49182	-643.84186	161.89792	-1192.69788	-595.96967	130.96906	-1261.07715	-748.31366	32.35165	-1119.27881	-954.45410	1789.26453									 
230	2.290	-1021.79327	-1056.13953	1721.10229	-1164.02112	-1068.19348	1711.12476	-1030.76685	-927.11853	1643.64636	-1173.47046	-928.20624	1631.54761	-1118.36963	-884.12158	1504.98450	-1123.29871	-841.23853	1226.33594	-1091.03406	-1023.23364	1439.11987	-1102.90002	-1082.94482	1270.65723	-1188.99805	-839.65265	1328.44629	-930.29590	-931.41626	1472.53760	-853.80585	-888.34521	1276.61584	-847.27618	-861.55212	1142.57263	-819.73218	-826.76263	1021.11975	-814.16022	-845.06232	881.17883	-802.05225	-793.55865	902.72180	-787.77643	-788.35303	836.97644	-1294.68835	-986.44910	1477.60840	-1377.01624	-1003.61731	1280.85632	-1385.21960	-1055.83118	1140.58301	-1384.38904	-1122.25415	1038.65454	-1339.72510	-1198.86853	935.81995	-1383.45203	-1166.08337	915.98267	-1368.66260	-1220.18152	870.21570	-975.44482	-1098.10657	986.05365	-1231.98914	-1089.14026	953.75702	-1047.43335	-881.26587	1014.67188	-1162.81152	-874.49426	1006.42194	-910.48425	-1091.17053	678.70544	-942.58472	-1100.49524	475.38388	-944.05133	-1076.48523	280.75439	-982.66260	-1109.32471	63.66759	-1041.72595	-1083.19055	36.09687	-948.69165	-1262.05090	29.99319	-1300.50903	-943.79016	663.98804	-1286.41357	-898.36298	461.64893	-1286.33789	-764.23145	327.06104	-1252.57861	-651.99103	167.85426	-1191.96350	-604.19684	139.34975	-1260.31970	-749.41998	32.37436	-1116.55713	-960.70984	1789.45081	-3356.86841	2845.93481	1034.10974						 
231	2.300	-1018.46295	-1061.64478	1721.58203	-1161.61353	-1075.00195	1711.97998	-1028.24109	-934.21460	1643.84314	-1171.05054	-935.42487	1631.76563	-1117.00171	-890.57336	1505.35181	-1120.47998	-849.14484	1226.67542	-1088.59692	-1031.31067	1439.86536	-1100.09717	-1091.16479	1271.33130	-1186.25000	-847.56287	1328.61633	-927.93530	-939.89404	1473.67151	-850.58142	-899.60760	1277.37659	-844.13934	-873.38763	1143.28577	-816.05444	-840.51239	1021.32776	-811.33411	-859.62305	881.28229	-798.18835	-808.31091	902.60870	-784.35358	-804.11060	836.54987	-1292.03857	-993.79626	1478.45886	-1373.83447	-1009.46460	1281.48438	-1382.07813	-1061.08960	1140.93127	-1380.21240	-1129.66016	1040.13538	-1337.87256	-1202.45776	934.71887	-1381.28345	-1169.19702	915.10583	-1367.33594	-1223.01331	868.97510	-972.04346	-1106.49426	988.79034	-1227.33997	-1097.88965	954.58618	-1044.42554	-890.14807	1015.17365	-1160.16895	-883.22620	1006.79974	-907.94537	-1101.45544	679.10498	-940.55280	-1106.83447	474.87091	-943.23236	-1079.99756	280.17136	-982.62634	-1109.93127	63.61245	-1041.75635	-1083.63123	36.29358	-948.52295	-1262.52405	29.54835	-1298.50928	-955.29803	663.49780	-1288.07666	-914.13165	460.86725	-1287.46130	-777.53601	329.33340	-1252.93079	-661.43567	173.87289	-1191.43152	-613.57635	148.08022	-1258.99646	-750.82867	32.47955	-1114.53931	-967.91974	1789.78662	-3356.78955	2846.00977	1034.13245						 
232	2.310	-1016.68225	-1069.51477	1722.60706	-1159.22668	-1081.80627	1712.97510	-1025.93884	-941.44098	1644.00598	-1172.51013	-946.40546	1634.02148	-1112.71655	-898.88245	1504.55237	-1117.78491	-856.84241	1227.02783	-1086.33093	-1039.14465	1440.61011	-1097.40222	-1099.15979	1271.93616	-1183.92859	-855.32153	1329.13110	-925.61774	-948.19824	1474.87634	-847.57013	-910.17889	1278.07227	-840.69092	-885.58771	1143.63855	-812.63037	-853.71710	1021.69067	-808.47412	-874.77826	881.51923	-794.26959	-823.64105	902.42065	-780.84979	-819.66992	836.27795	-1289.40051	-1001.00848	1479.27344	-1370.74597	-1015.60474	1282.21973	-1378.99426	-1066.10913	1141.34875	-1378.95532	-1130.75012	1038.49036	-1336.25195	-1205.81128	933.66992	-1378.96045	-1171.78516	914.05957	-1366.07056	-1225.68469	867.73486	-968.92181	-1114.07642	991.12744	-1222.76245	-1106.21338	955.51917	-1041.62671	-898.44000	1015.51270	-1157.46619	-891.59998	1007.06372	-905.00958	-1110.28247	680.05780	-938.54181	-1112.15662	474.57162	-943.02826	-1081.49512	280.21997	-982.68329	-1110.23987	63.58898	-1041.77527	-1083.75366	36.45147	-948.44305	-1262.76306	29.28453	-1296.96594	-967.10071	662.66125	-1289.41492	-930.70752	459.69595	-1288.47876	-791.68945	331.70432	-1253.35413	-671.88007	179.86449	-1191.18494	-623.51477	157.17674	-1257.27710	-752.46716	32.82991	-1112.15906	-974.52710	1790.33704	-3360.32666	2845.27441	1034.21375						 
